<svg width="149" height="22" viewBox="0 0 149 22" fill="none" xmlns="http://www.w3.org/2000/svg">
<path d="M9.21733 6.5C9.17756 6.00284 8.99112 5.61506 8.65803 5.33665C8.3299 5.05824 7.83026 4.91903 7.15909 4.91903C6.73153 4.91903 6.38104 4.97124 6.1076 5.07564C5.83913 5.17507 5.64027 5.31179 5.51101 5.48579C5.38175 5.6598 5.31463 5.85866 5.30966 6.08239C5.29972 6.26633 5.33203 6.43288 5.40661 6.58203C5.48615 6.72621 5.61044 6.85795 5.77947 6.97727C5.94851 7.09162 6.16477 7.19602 6.42827 7.29048C6.69176 7.38494 7.00497 7.46946 7.3679 7.54403L8.62074 7.8125C9.46591 7.99148 10.1893 8.22763 10.7908 8.52095C11.3924 8.81428 11.8846 9.1598 12.2674 9.55753C12.6502 9.95028 12.9311 10.3928 13.1101 10.8849C13.294 11.3771 13.3885 11.9141 13.3935 12.4957C13.3885 13.5 13.1374 14.3501 12.6403 15.0462C12.1431 15.7422 11.4322 16.2717 10.5075 16.6346C9.58771 16.9975 8.48153 17.179 7.18892 17.179C5.86151 17.179 4.70313 16.9826 3.71378 16.5898C2.7294 16.1971 1.96378 15.593 1.4169 14.7777C0.875 13.9574 0.601563 12.9084 0.596591 11.6307H4.53409C4.55895 12.098 4.67578 12.4908 4.88459 12.8089C5.0934 13.1271 5.38672 13.3683 5.76456 13.5323C6.14737 13.6964 6.60227 13.7784 7.12926 13.7784C7.57173 13.7784 7.94212 13.7237 8.24041 13.6143C8.53871 13.505 8.76492 13.3533 8.91903 13.1594C9.07315 12.9656 9.1527 12.7443 9.15767 12.4957C9.1527 12.2621 9.07564 12.0582 8.92649 11.8842C8.78232 11.7053 8.54368 11.5462 8.21058 11.407C7.87749 11.2628 7.42756 11.1286 6.8608 11.0043L5.33949 10.6761C3.98722 10.3828 2.92081 9.89311 2.14027 9.20703C1.3647 8.51598 0.979403 7.57386 0.984375 6.38068C0.979403 5.41122 1.23793 4.56357 1.75994 3.83771C2.28693 3.10689 3.01527 2.53764 3.94496 2.12997C4.87962 1.7223 5.95099 1.51847 7.15909 1.51847C8.39205 1.51847 9.45845 1.72479 10.3583 2.13743C11.2582 2.55007 11.9517 3.13175 12.4389 3.88246C12.9311 4.6282 13.1797 5.50071 13.1847 6.5H9.21733ZM20.5488 17.2088C19.3059 17.2088 18.242 16.9627 17.3571 16.4705C16.4721 15.9734 15.7935 15.2823 15.3212 14.3974C14.8489 13.5075 14.6127 12.4759 14.6127 11.3026C14.6127 10.1293 14.8489 9.10014 15.3212 8.2152C15.7935 7.32528 16.4721 6.63423 17.3571 6.14204C18.242 5.64489 19.3059 5.39631 20.5488 5.39631C21.7917 5.39631 22.8556 5.64489 23.7406 6.14204C24.6255 6.63423 25.3042 7.32528 25.7765 8.2152C26.2488 9.10014 26.4849 10.1293 26.4849 11.3026C26.4849 12.4759 26.2488 13.5075 25.7765 14.3974C25.3042 15.2823 24.6255 15.9734 23.7406 16.4705C22.8556 16.9627 21.7917 17.2088 20.5488 17.2088ZM20.5787 14.1662C20.9267 14.1662 21.2275 14.0494 21.481 13.8157C21.7346 13.582 21.9309 13.2489 22.0701 12.8164C22.2093 12.3839 22.2789 11.8693 22.2789 11.2727C22.2789 10.6712 22.2093 10.1566 22.0701 9.72905C21.9309 9.29652 21.7346 8.96342 21.481 8.72976C21.2275 8.49609 20.9267 8.37926 20.5787 8.37926C20.2108 8.37926 19.8951 8.49609 19.6316 8.72976C19.3681 8.96342 19.1667 9.29652 19.0275 9.72905C18.8883 10.1566 18.8187 10.6712 18.8187 11.2727C18.8187 11.8693 18.8883 12.3839 19.0275 12.8164C19.1667 13.2489 19.3681 13.582 19.6316 13.8157C19.8951 14.0494 20.2108 14.1662 20.5787 14.1662ZM32.2718 10.5568V17H28.1554V5.54545H32.063V7.72301H32.1824C32.4309 6.99716 32.8684 6.42791 33.4949 6.01527C34.1262 5.60263 34.862 5.39631 35.7022 5.39631C36.5126 5.39631 37.2161 5.58274 37.8127 5.95561C38.4142 6.32351 38.8791 6.83061 39.2072 7.47692C39.5403 8.12322 39.7044 8.86151 39.6994 9.69176V17H35.5829V10.5568C35.5879 9.99006 35.4437 9.5451 35.1504 9.22195C34.862 8.89879 34.4593 8.73722 33.9423 8.73722C33.6042 8.73722 33.3084 8.81179 33.0549 8.96094C32.8063 9.10511 32.6149 9.31392 32.4806 9.58736C32.3464 9.85582 32.2768 10.179 32.2718 10.5568ZM47.25 21.5341C46.1016 21.5341 45.1172 21.37 44.2969 21.0419C43.4815 20.7188 42.8477 20.2713 42.3952 19.6996C41.9478 19.1328 41.6967 18.4815 41.642 17.7457H45.6094C45.6491 17.9893 45.7486 18.1857 45.9077 18.3349C46.0668 18.484 46.2706 18.5909 46.5192 18.6555C46.7727 18.7251 47.0561 18.7599 47.3693 18.7599C47.9013 18.7599 48.3413 18.6307 48.6893 18.3722C49.0423 18.1136 49.2188 17.6463 49.2188 16.9702V15.0312H49.0994C48.9503 15.419 48.7216 15.7496 48.4134 16.0231C48.1051 16.2915 47.7347 16.4979 47.3022 16.642C46.8697 16.7812 46.3949 16.8509 45.8778 16.8509C45.0625 16.8509 44.3118 16.6619 43.6257 16.2841C42.9446 15.9062 42.3977 15.3072 41.9851 14.4869C41.5774 13.6665 41.3736 12.5952 41.3736 11.2727C41.3736 9.89062 41.5874 8.76705 42.0149 7.90199C42.4474 7.03693 43.0043 6.40305 43.6854 6.00035C44.3714 5.59766 45.0923 5.39631 45.848 5.39631C46.4148 5.39631 46.9119 5.49574 47.3395 5.6946C47.767 5.88849 48.125 6.1495 48.4134 6.47763C48.7017 6.80078 48.9205 7.15625 49.0696 7.54403H49.1591V5.54545H53.2756V16.9702C53.2756 17.9396 53.0245 18.7624 52.5224 19.4386C52.0252 20.1197 51.3242 20.6392 50.4194 20.9972C49.5146 21.3551 48.4581 21.5341 47.25 21.5341ZM47.3991 13.9276C47.777 13.9276 48.1001 13.8232 48.3686 13.6143C48.642 13.4006 48.8509 13.0973 48.995 12.7045C49.1442 12.3068 49.2188 11.8295 49.2188 11.2727C49.2188 10.706 49.1442 10.2212 48.995 9.81854C48.8509 9.41087 48.642 9.10014 48.3686 8.88636C48.1001 8.66761 47.777 8.55824 47.3991 8.55824C47.0213 8.55824 46.6982 8.66761 46.4297 8.88636C46.1662 9.10014 45.9624 9.41087 45.8182 9.81854C45.679 10.2212 45.6094 10.706 45.6094 11.2727C45.6094 11.8395 45.679 12.3217 45.8182 12.7195C45.9624 13.1122 46.1662 13.413 46.4297 13.6218C46.6982 13.8256 47.0213 13.9276 47.3991 13.9276ZM65.8394 9.27415H62.051C62.0312 9.04048 61.9491 8.83913 61.805 8.6701C61.6608 8.50107 61.4743 8.3718 61.2457 8.28232C61.0219 8.18786 60.7733 8.14062 60.4999 8.14062C60.1469 8.14062 59.8437 8.20526 59.5901 8.33452C59.3366 8.46378 59.2123 8.64773 59.2172 8.88636C59.2123 9.0554 59.2844 9.212 59.4335 9.35618C59.5876 9.50035 59.8834 9.61222 60.3209 9.69176L62.6476 10.1094C63.8209 10.3232 64.6934 10.6836 65.2652 11.1907C65.8419 11.6928 66.1327 12.3665 66.1377 13.2116C66.1327 14.027 65.8891 14.7354 65.4069 15.337C64.9296 15.9336 64.2758 16.396 63.4456 16.7241C62.6203 17.0472 61.6782 17.2088 60.6192 17.2088C58.8692 17.2088 57.4996 16.8509 56.5102 16.1349C55.5258 15.419 54.9765 14.4744 54.8621 13.3011H58.9488C59.0035 13.6641 59.1824 13.945 59.4857 14.1438C59.7939 14.3377 60.1817 14.4347 60.6491 14.4347C61.0269 14.4347 61.3376 14.37 61.5812 14.2408C61.8298 14.1115 61.9566 13.9276 61.9616 13.6889C61.9566 13.4702 61.8472 13.2962 61.6334 13.1669C61.4246 13.0376 61.0965 12.9332 60.6491 12.8537L58.6207 12.4957C57.4523 12.2919 56.5773 11.9041 55.9956 11.3324C55.414 10.7607 55.1256 10.0249 55.1306 9.125C55.1256 8.32955 55.3344 7.65589 55.757 7.10405C56.1846 6.54723 56.7936 6.12464 57.5841 5.83629C58.3795 5.54297 59.3216 5.39631 60.4104 5.39631C62.066 5.39631 63.371 5.73935 64.3256 6.42543C65.2851 7.11151 65.7897 8.06108 65.8394 9.27415Z" fill="#33238E"/>
<path d="M77.417 17.2088C76.1741 17.2088 75.1102 16.9627 74.2252 16.4705C73.3403 15.9734 72.6617 15.2823 72.1894 14.3974C71.7171 13.5075 71.4809 12.4759 71.4809 11.3026C71.4809 10.1293 71.7171 9.10014 72.1894 8.2152C72.6617 7.32528 73.3403 6.63423 74.2252 6.14204C75.1102 5.64489 76.1741 5.39631 77.417 5.39631C78.6599 5.39631 79.7238 5.64489 80.6088 6.14204C81.4937 6.63423 82.1723 7.32528 82.6446 8.2152C83.1169 9.10014 83.3531 10.1293 83.3531 11.3026C83.3531 12.4759 83.1169 13.5075 82.6446 14.3974C82.1723 15.2823 81.4937 15.9734 80.6088 16.4705C79.7238 16.9627 78.6599 17.2088 77.417 17.2088ZM77.4468 14.1662C77.7948 14.1662 78.0956 14.0494 78.3492 13.8157C78.6027 13.582 78.7991 13.2489 78.9383 12.8164C79.0775 12.3839 79.1471 11.8693 79.1471 11.2727C79.1471 10.6712 79.0775 10.1566 78.9383 9.72905C78.7991 9.29652 78.6027 8.96342 78.3492 8.72976C78.0956 8.49609 77.7948 8.37926 77.4468 8.37926C77.0789 8.37926 76.7632 8.49609 76.4997 8.72976C76.2362 8.96342 76.0349 9.29652 75.8957 9.72905C75.7565 10.1566 75.6869 10.6712 75.6869 11.2727C75.6869 11.8693 75.7565 12.3839 75.8957 12.8164C76.0349 13.2489 76.2362 13.582 76.4997 13.8157C76.7632 14.0494 77.0789 14.1662 77.4468 14.1662ZM91.8843 5.54545V8.52841H84.2181V5.54545H91.8843ZM85.6798 17V5.21733C85.6798 4.27273 85.8488 3.4897 86.1869 2.86825C86.5249 2.2468 87.0022 1.78196 87.6187 1.47372C88.2352 1.16548 88.961 1.01136 89.7963 1.01136C90.3183 1.01136 90.8254 1.05114 91.3176 1.13068C91.8147 1.21023 92.1826 1.27983 92.4213 1.33949L91.8247 4.29261C91.6755 4.24787 91.5015 4.21307 91.3026 4.18821C91.1038 4.15838 90.9298 4.14347 90.7806 4.14347C90.3928 4.14347 90.1318 4.2255 89.9976 4.38956C89.8634 4.55362 89.7963 4.76989 89.7963 5.03835V17H85.6798Z" fill="#F316F8"/>
<path d="M97.5967 17V1.72727H108.335V5.06818H101.743V7.69318H107.679V11.0341H101.743V17H97.5967ZM112.866 17.179C112.135 17.179 111.489 17.0597 110.927 16.821C110.37 16.5774 109.932 16.2095 109.614 15.7173C109.296 15.2251 109.137 14.5987 109.137 13.8381C109.137 13.2116 109.244 12.6772 109.458 12.2347C109.671 11.7873 109.97 11.4219 110.353 11.1385C110.735 10.8551 111.18 10.6388 111.687 10.4897C112.199 10.3406 112.751 10.2436 113.343 10.1989C113.984 10.1491 114.499 10.0895 114.887 10.0199C115.279 9.94531 115.563 9.84339 115.737 9.71413C115.911 9.5799 115.998 9.40341 115.998 9.18466V9.15483C115.998 8.85653 115.883 8.62784 115.655 8.46875C115.426 8.30966 115.133 8.23011 114.775 8.23011C114.382 8.23011 114.061 8.31712 113.813 8.49112C113.569 8.66016 113.422 8.92116 113.373 9.27415H109.584C109.634 8.57812 109.855 7.93679 110.248 7.35014C110.646 6.75852 111.225 6.28622 111.986 5.93324C112.746 5.57528 113.696 5.39631 114.834 5.39631C115.655 5.39631 116.391 5.49325 117.042 5.68715C117.693 5.87607 118.247 6.14205 118.705 6.48508C119.162 6.82315 119.51 7.22088 119.749 7.67827C119.992 8.13068 120.114 8.62287 120.114 9.15483V17H116.266V15.3892H116.177C115.948 15.8168 115.67 16.1623 115.342 16.4258C115.018 16.6893 114.648 16.8807 114.23 17C113.818 17.1193 113.363 17.179 112.866 17.179ZM114.208 14.5838C114.521 14.5838 114.815 14.5192 115.088 14.3899C115.366 14.2607 115.593 14.0742 115.767 13.8306C115.941 13.587 116.028 13.2912 116.028 12.9432V11.9886C115.918 12.0334 115.801 12.0756 115.677 12.1154C115.558 12.1552 115.429 12.1925 115.289 12.2273C115.155 12.2621 115.011 12.2944 114.857 12.3242C114.708 12.354 114.551 12.3814 114.387 12.4062C114.069 12.456 113.808 12.538 113.604 12.6523C113.405 12.7617 113.256 12.8984 113.157 13.0625C113.062 13.2216 113.015 13.4006 113.015 13.5994C113.015 13.9176 113.127 14.1612 113.35 14.3303C113.574 14.4993 113.86 14.5838 114.208 14.5838ZM122.081 17V5.54545H126.198V17H122.081ZM124.139 4.35227C123.583 4.35227 123.105 4.16832 122.708 3.80043C122.31 3.43253 122.111 2.99006 122.111 2.47301C122.111 1.95597 122.31 1.51349 122.708 1.1456C123.105 0.777699 123.583 0.59375 124.139 0.59375C124.701 0.59375 125.178 0.777699 125.571 1.1456C125.969 1.51349 126.168 1.95597 126.168 2.47301C126.168 2.99006 125.969 3.43253 125.571 3.80043C125.178 4.16832 124.701 4.35227 124.139 4.35227ZM135.126 5.54545V8.52841H127.579V5.54545H135.126ZM129.041 2.80114H133.157V13.3161C133.157 13.4751 133.185 13.6094 133.239 13.7188C133.294 13.8232 133.378 13.9027 133.493 13.9574C133.607 14.0071 133.754 14.032 133.933 14.032C134.057 14.032 134.201 14.017 134.365 13.9872C134.534 13.9574 134.659 13.9325 134.738 13.9126L135.335 16.8061C135.151 16.8608 134.887 16.9279 134.544 17.0075C134.206 17.087 133.804 17.1392 133.336 17.1641C132.392 17.2138 131.599 17.1168 130.957 16.8732C130.316 16.6246 129.834 16.2344 129.511 15.7024C129.187 15.1705 129.031 14.5043 129.041 13.7038V2.80114ZM141.168 10.5568V17H137.052V1.72727H141.019V7.72301H141.138C141.397 6.99219 141.827 6.42294 142.429 6.01527C143.03 5.60263 143.754 5.39631 144.599 5.39631C145.409 5.39631 146.113 5.58026 146.709 5.94815C147.311 6.31605 147.776 6.82315 148.104 7.46946C148.437 8.11577 148.601 8.85653 148.596 9.69176V17H144.479V10.5568C144.484 9.99006 144.343 9.5451 144.054 9.22195C143.771 8.89879 143.366 8.73722 142.839 8.73722C142.506 8.73722 142.212 8.81179 141.959 8.96094C141.71 9.10511 141.516 9.31392 141.377 9.58736C141.243 9.85582 141.173 10.179 141.168 10.5568Z" fill="#3B2B91"/>
</svg>
