<svg width="154" height="49" viewBox="0 0 154 49" fill="none" xmlns="http://www.w3.org/2000/svg">
<path d="M22.3239 8.27273H16.7159C16.6761 7.80871 16.5701 7.38778 16.3977 7.00994C16.232 6.6321 16 6.30729 15.7017 6.03551C15.41 5.7571 15.0554 5.54498 14.6378 5.39915C14.2202 5.24668 13.7462 5.17045 13.2159 5.17045C12.2879 5.17045 11.5024 5.39583 10.8594 5.84659C10.223 6.29735 9.73911 6.94365 9.40767 7.78551C9.08286 8.62737 8.92045 9.63826 8.92045 10.8182C8.92045 12.0644 9.08617 13.1084 9.41761 13.9503C9.75568 14.7855 10.2429 15.4152 10.8793 15.8395C11.5156 16.2571 12.2813 16.4659 13.1761 16.4659C13.6866 16.4659 14.1439 16.4029 14.5483 16.277C14.9527 16.1444 15.304 15.9555 15.6023 15.7102C15.9006 15.465 16.1425 15.17 16.3281 14.8253C16.5204 14.474 16.6496 14.0795 16.7159 13.642L22.3239 13.6818C22.2576 14.5436 22.0156 15.4219 21.598 16.3168C21.1804 17.205 20.5871 18.027 19.8182 18.7827C19.0559 19.5317 18.1113 20.1349 16.9844 20.5923C15.8575 21.0497 14.5483 21.2784 13.0568 21.2784C11.1875 21.2784 9.51042 20.8774 8.02557 20.0753C6.54735 19.2732 5.37737 18.0933 4.51562 16.5355C3.66051 14.9777 3.23295 13.072 3.23295 10.8182C3.23295 8.55114 3.67045 6.64205 4.54545 5.09091C5.42045 3.53314 6.60038 2.35653 8.08523 1.56108C9.57008 0.758995 11.2273 0.357954 13.0568 0.357954C14.3428 0.357954 15.526 0.533616 16.6065 0.884942C17.687 1.23627 18.6349 1.75 19.4503 2.42614C20.2656 3.09564 20.9219 3.92093 21.419 4.90199C21.9162 5.88305 22.2178 7.00663 22.3239 8.27273ZM105.223 43.3182C104.454 43.3182 103.794 43.0497 103.244 42.5128C102.7 41.9692 102.432 41.3097 102.439 40.5341C102.432 39.7784 102.7 39.1321 103.244 38.5952C103.794 38.0582 104.454 37.7898 105.223 37.7898C105.952 37.7898 106.595 38.0582 107.152 38.5952C107.715 39.1321 108 39.7784 108.007 40.5341C108 41.0511 107.864 41.5218 107.599 41.946C107.341 42.3636 107.002 42.6984 106.585 42.9503C106.167 43.1955 105.713 43.3182 105.223 43.3182Z" fill="#33238E"/>
<path d="M29.1673 21.2386C28.1928 21.2386 27.3311 21.0795 26.582 20.7614C25.8396 20.4366 25.2563 19.946 24.832 19.2898C24.4078 18.6335 24.1957 17.7983 24.1957 16.7841C24.1957 15.9489 24.3382 15.2363 24.6232 14.6463C24.9083 14.0497 25.306 13.5625 25.8164 13.1847C26.3268 12.8068 26.9201 12.5185 27.5962 12.3196C28.279 12.1207 29.0148 11.9915 29.8036 11.9318C30.6587 11.8655 31.3448 11.786 31.8619 11.6932C32.3855 11.5937 32.7634 11.4579 32.9954 11.2855C33.2274 11.1065 33.3434 10.8712 33.3434 10.5795V10.5398C33.3434 10.142 33.1909 9.83712 32.886 9.625C32.5811 9.41288 32.19 9.30682 31.7127 9.30682C31.189 9.30682 30.7615 9.42282 30.43 9.65483C30.1052 9.88021 29.9097 10.2282 29.8434 10.6989H24.7923C24.8585 9.77083 25.1535 8.91572 25.6772 8.13352C26.2075 7.3447 26.9798 6.71496 27.994 6.24432C29.0082 5.76705 30.2743 5.52841 31.7923 5.52841C32.886 5.52841 33.8671 5.65767 34.7354 5.91619C35.6038 6.16809 36.3429 6.52273 36.9528 6.98011C37.5626 7.43087 38.0266 7.96117 38.3448 8.57102C38.6696 9.17424 38.832 9.83049 38.832 10.5398V21H33.7013V18.8523H33.582C33.2771 19.4223 32.9059 19.883 32.4684 20.2344C32.0375 20.5857 31.5437 20.8409 30.9869 21C30.4367 21.1591 29.8301 21.2386 29.1673 21.2386ZM30.957 17.7784C31.3746 17.7784 31.7657 17.6922 32.1303 17.5199C32.5015 17.3475 32.8031 17.099 33.0352 16.7741C33.2672 16.4493 33.3832 16.0549 33.3832 15.5909V14.3182C33.2373 14.3778 33.0816 14.4342 32.9158 14.4872C32.7567 14.5402 32.5844 14.59 32.3988 14.6364C32.2198 14.6828 32.0276 14.7259 31.8221 14.7656C31.6232 14.8054 31.4144 14.8419 31.1957 14.875C30.7714 14.9413 30.4234 15.0507 30.1516 15.2031C29.8865 15.349 29.6876 15.5312 29.555 15.75C29.4291 15.9621 29.3661 16.2008 29.3661 16.4659C29.3661 16.8902 29.5153 17.215 29.8136 17.4403C30.1119 17.6657 30.493 17.7784 30.957 17.7784ZM41.4545 21V5.72727H46.6648V8.63068H46.8239C47.142 7.67614 47.6856 6.92045 48.4545 6.36364C49.2235 5.80682 50.1383 5.52841 51.1989 5.52841C52.2727 5.52841 53.1974 5.81345 53.973 6.38352C54.7486 6.94697 55.2159 7.69602 55.375 8.63068H55.5341C55.7926 7.69602 56.3428 6.94697 57.1847 6.38352C58.0265 5.81345 59.0142 5.52841 60.1477 5.52841C61.6127 5.52841 62.7992 5.99905 63.7074 6.94034C64.6222 7.88163 65.0795 9.13447 65.0795 10.6989V21H59.5909V12.0909C59.5909 11.4214 59.4219 10.8977 59.0838 10.5199C58.7457 10.1354 58.2917 9.94318 57.7216 9.94318C57.1581 9.94318 56.7107 10.1354 56.3793 10.5199C56.0545 10.8977 55.892 11.4214 55.892 12.0909V21H50.642V12.0909C50.642 11.4214 50.473 10.8977 50.1349 10.5199C49.7969 10.1354 49.3428 9.94318 48.7727 9.94318C48.3949 9.94318 48.0701 10.0294 47.7983 10.2017C47.5265 10.3741 47.3144 10.6226 47.1619 10.9474C47.0161 11.2656 46.9432 11.6468 46.9432 12.0909V21H41.4545ZM75.1048 21.2784C73.4741 21.2784 72.0688 20.9669 70.8888 20.3438C69.7156 19.714 68.8107 18.8125 68.1744 17.6392C67.5446 16.4593 67.2298 15.0473 67.2298 13.4034C67.2298 11.8258 67.5479 10.447 68.1843 9.26705C68.8207 8.08712 69.7189 7.16903 70.8789 6.51278C72.0389 5.85653 73.4078 5.52841 74.9854 5.52841C76.1388 5.52841 77.1829 5.70739 78.1175 6.06534C79.0522 6.4233 79.851 6.94365 80.5138 7.62642C81.1767 8.30256 81.6871 9.12453 82.0451 10.0923C82.4031 11.0601 82.582 12.1506 82.582 13.3636V14.6364H68.94V11.6136H77.5309C77.5243 11.1761 77.4116 10.7917 77.1928 10.4602C76.9807 10.1222 76.6924 9.86032 76.3278 9.67472C75.9698 9.48248 75.5621 9.38636 75.1048 9.38636C74.6606 9.38636 74.253 9.48248 73.8817 9.67472C73.5105 9.86032 73.2122 10.1188 72.9869 10.4503C72.7681 10.7817 72.6521 11.1695 72.6388 11.6136V14.875C72.6388 15.3655 72.7416 15.803 72.9471 16.1875C73.1526 16.572 73.4476 16.8736 73.832 17.0923C74.2165 17.3111 74.6805 17.4205 75.2241 17.4205C75.6019 17.4205 75.9466 17.3674 76.2582 17.2614C76.5763 17.1553 76.8481 17.0028 77.0735 16.804C77.2989 16.5985 77.4646 16.3532 77.5707 16.0682H82.582C82.4097 17.1288 82.002 18.0502 81.359 18.8324C80.716 19.608 79.8642 20.2112 78.8036 20.642C77.7496 21.0663 76.5167 21.2784 75.1048 21.2784ZM84.8217 21V5.72727H90.1513V8.63068H90.3104C90.5888 7.55682 91.0296 6.77131 91.6328 6.27415C92.2427 5.77699 92.9553 5.52841 93.7706 5.52841C94.0092 5.52841 94.2446 5.5483 94.4766 5.58807C94.7152 5.62121 94.9439 5.67093 95.1626 5.73722V10.4205C94.8909 10.3277 94.5561 10.258 94.1584 10.2116C93.7607 10.1652 93.4193 10.142 93.1342 10.142C92.5973 10.142 92.1134 10.2647 91.6825 10.5099C91.2583 10.7486 90.9235 11.0866 90.6783 11.5241C90.433 11.955 90.3104 12.4621 90.3104 13.0455V21H84.8217ZM103.445 21.2784C101.788 21.2784 100.37 20.9503 99.1896 20.294C98.0097 19.6312 97.1049 18.7098 96.4751 17.5298C95.8454 16.3433 95.5305 14.9678 95.5305 13.4034C95.5305 11.839 95.8454 10.4669 96.4751 9.28693C97.1049 8.10038 98.0097 7.17898 99.1896 6.52273C100.37 5.85985 101.788 5.52841 103.445 5.52841C105.103 5.52841 106.521 5.85985 107.701 6.52273C108.881 7.17898 109.786 8.10038 110.415 9.28693C111.045 10.4669 111.36 11.839 111.36 13.4034C111.36 14.9678 111.045 16.3433 110.415 17.5298C109.786 18.7098 108.881 19.6312 107.701 20.294C106.521 20.9503 105.103 21.2784 103.445 21.2784ZM103.485 17.2216C103.949 17.2216 104.35 17.0658 104.688 16.7543C105.026 16.4427 105.288 15.9986 105.474 15.4219C105.659 14.8452 105.752 14.1591 105.752 13.3636C105.752 12.5616 105.659 11.8755 105.474 11.3054C105.288 10.7287 105.026 10.2846 104.688 9.97301C104.35 9.66146 103.949 9.50568 103.485 9.50568C102.995 9.50568 102.574 9.66146 102.222 9.97301C101.871 10.2846 101.603 10.7287 101.417 11.3054C101.231 11.8755 101.138 12.5616 101.138 13.3636C101.138 14.1591 101.231 14.8452 101.417 15.4219C101.603 15.9986 101.871 16.4427 102.222 16.7543C102.574 17.0658 102.995 17.2216 103.485 17.2216ZM120.945 21.2784C119.288 21.2784 117.87 20.9503 116.69 20.294C115.51 19.6312 114.605 18.7098 113.975 17.5298C113.345 16.3433 113.031 14.9678 113.031 13.4034C113.031 11.839 113.345 10.4669 113.975 9.28693C114.605 8.10038 115.51 7.17898 116.69 6.52273C117.87 5.85985 119.288 5.52841 120.945 5.52841C122.603 5.52841 124.021 5.85985 125.201 6.52273C126.381 7.17898 127.286 8.10038 127.915 9.28693C128.545 10.4669 128.86 11.839 128.86 13.4034C128.86 14.9678 128.545 16.3433 127.915 17.5298C127.286 18.7098 126.381 19.6312 125.201 20.294C124.021 20.9503 122.603 21.2784 120.945 21.2784ZM120.985 17.2216C121.449 17.2216 121.85 17.0658 122.188 16.7543C122.526 16.4427 122.788 15.9986 122.974 15.4219C123.159 14.8452 123.252 14.1591 123.252 13.3636C123.252 12.5616 123.159 11.8755 122.974 11.3054C122.788 10.7287 122.526 10.2846 122.188 9.97301C121.85 9.66146 121.449 9.50568 120.985 9.50568C120.495 9.50568 120.074 9.66146 119.722 9.97301C119.371 10.2846 119.103 10.7287 118.917 11.3054C118.731 11.8755 118.638 12.5616 118.638 13.3636C118.638 14.1591 118.731 14.8452 118.917 15.4219C119.103 15.9986 119.371 16.4427 119.722 16.7543C120.074 17.0658 120.495 17.2216 120.985 17.2216ZM136.576 12.4091V21H131.087V5.72727H136.298V8.63068H136.457C136.788 7.66288 137.371 6.90388 138.207 6.35369C139.049 5.8035 140.03 5.52841 141.15 5.52841C142.23 5.52841 143.168 5.77699 143.964 6.27415C144.766 6.76468 145.386 7.44081 145.823 8.30256C146.267 9.1643 146.486 10.1487 146.479 11.2557V21H140.991V12.4091C140.997 11.6534 140.805 11.0601 140.414 10.6293C140.03 10.1984 139.493 9.98295 138.803 9.98295C138.353 9.98295 137.958 10.0824 137.62 10.2812C137.289 10.4735 137.033 10.7519 136.854 11.1165C136.675 11.4744 136.583 11.9053 136.576 12.4091Z" fill="#33238E"/>
<path d="M3.3125 43V22.6364H8.84091V30.5909H16.1591V22.6364H21.6875V43H16.1591V35.0455H8.84091V43H3.3125ZM27.733 48.7273C27.1032 48.7273 26.5033 48.6776 25.9332 48.5781C25.3632 48.4853 24.8627 48.3561 24.4318 48.1903L25.625 44.2926C26.0758 44.4517 26.4867 44.5545 26.858 44.6009C27.2358 44.6473 27.5573 44.6207 27.8224 44.5213C28.0942 44.4219 28.2898 44.233 28.4091 43.9545L28.5284 43.6761L23.1591 27.7273H28.8864L31.3523 38.3068H31.5114L34.017 27.7273H39.7841L34.2159 44.2727C33.9375 45.1146 33.5331 45.8703 33.0028 46.5398C32.4792 47.2159 31.7898 47.7495 30.9347 48.1406C30.0795 48.5317 29.0123 48.7273 27.733 48.7273ZM41.3452 43V27.7273H46.5554V30.6307H46.7145C47.0327 29.6761 47.5762 28.9205 48.3452 28.3636C49.1141 27.8068 50.0289 27.5284 51.0895 27.5284C52.1634 27.5284 53.0881 27.8134 53.8636 28.3835C54.6392 28.947 55.1065 29.696 55.2656 30.6307H55.4247C55.6832 29.696 56.2334 28.947 57.0753 28.3835C57.9171 27.8134 58.9048 27.5284 60.0384 27.5284C61.5033 27.5284 62.6899 27.9991 63.598 28.9403C64.5128 29.8816 64.9702 31.1345 64.9702 32.6989V43H59.4815V34.0909C59.4815 33.4214 59.3125 32.8977 58.9744 32.5199C58.6364 32.1354 58.1823 31.9432 57.6122 31.9432C57.0488 31.9432 56.6013 32.1354 56.2699 32.5199C55.9451 32.8977 55.7827 33.4214 55.7827 34.0909V43H50.5327V34.0909C50.5327 33.4214 50.3636 32.8977 50.0256 32.5199C49.6875 32.1354 49.2334 31.9432 48.6634 31.9432C48.2855 31.9432 47.9607 32.0294 47.6889 32.2017C47.4171 32.3741 47.205 32.6226 47.0526 32.9474C46.9067 33.2656 46.8338 33.6468 46.8338 34.0909V43H41.3452ZM73.1658 34.4091V43H67.6772V27.7273H72.8874V30.6307H73.0465C73.378 29.6629 73.9613 28.9039 74.7965 28.3537C75.6384 27.8035 76.6194 27.5284 77.7397 27.5284C78.8202 27.5284 79.7582 27.777 80.5536 28.2741C81.3557 28.7647 81.9755 29.4408 82.413 30.3026C82.8571 31.1643 83.0759 32.1487 83.0692 33.2557V43H77.5806V34.4091C77.5872 33.6534 77.395 33.0601 77.0039 32.6293C76.6194 32.1984 76.0825 31.983 75.3931 31.983C74.9424 31.983 74.5479 32.0824 74.2099 32.2812C73.8784 32.4735 73.6232 32.7519 73.4442 33.1165C73.2653 33.4744 73.1725 33.9053 73.1658 34.4091ZM99.739 32.6989H94.6879C94.6613 32.3873 94.552 32.1188 94.3597 31.8935C94.1675 31.6681 93.9189 31.4957 93.614 31.3764C93.3157 31.2505 92.9843 31.1875 92.6197 31.1875C92.149 31.1875 91.7447 31.2737 91.4066 31.446C91.0685 31.6184 90.9028 31.8636 90.9094 32.1818C90.9028 32.4072 90.9989 32.616 91.1978 32.8082C91.4033 33.0005 91.7977 33.1496 92.381 33.2557L95.4833 33.8125C97.0477 34.0975 98.2111 34.5781 98.9734 35.2543C99.7423 35.9238 100.13 36.822 100.137 37.9489C100.13 39.036 99.8053 39.9806 99.1623 40.7827C98.5259 41.5781 97.6542 42.1946 96.5472 42.6321C95.4469 43.063 94.1907 43.2784 92.7788 43.2784C90.4454 43.2784 88.6192 42.8011 87.3001 41.8466C85.9876 40.892 85.2551 39.6326 85.1026 38.0682H90.5515C90.6244 38.5521 90.863 38.9266 91.2674 39.1918C91.6784 39.4503 92.1954 39.5795 92.8185 39.5795C93.3223 39.5795 93.7366 39.4934 94.0614 39.321C94.3929 39.1487 94.5619 38.9034 94.5685 38.5852C94.5619 38.2936 94.4161 38.0616 94.131 37.8892C93.8526 37.7169 93.4151 37.5777 92.8185 37.4716L90.114 36.9943C88.5562 36.7225 87.3896 36.2055 86.614 35.4432C85.8384 34.6809 85.454 33.6998 85.4606 32.5C85.454 31.4394 85.7324 30.5412 86.2958 29.8054C86.8659 29.063 87.6779 28.4995 88.7319 28.1151C89.7925 27.724 91.0487 27.5284 92.5004 27.5284C94.7077 27.5284 96.4478 27.9858 97.7205 28.9006C98.9999 29.8153 99.6727 31.0814 99.739 32.6989Z" fill="#F316F8"/>
</svg>
